<svg width="227" height="154" viewBox="0 0 227 154" fill="none" xmlns="http://www.w3.org/2000/svg">
<path d="M109.101 13.6885L120.202 6.34931C120.731 5.99743 121.15 6.2739 121.15 6.97766V7.3295C121.15 8.00813 120.731 8.86269 120.202 9.21457L109.101 16.5538C108.573 16.9057 108.154 16.6041 108.154 15.9254V15.5735C108.154 14.8698 108.573 14.0403 109.101 13.6885Z" fill="#ABB5B5"/>
<path d="M107.561 14.5167C107.627 14.2653 107.737 14.0391 107.869 13.8129C108.023 13.5616 108.2 13.3605 108.398 13.2348L119.499 5.89564C119.763 5.7197 120.005 5.69457 120.16 5.82024L120.842 6.27264C120.666 6.17211 120.424 6.1721 120.182 6.34804L109.081 13.6872C108.882 13.8129 108.706 14.014 108.552 14.2653C108.42 14.4664 108.31 14.7177 108.244 14.9691C108.177 15.1701 108.155 15.3963 108.155 15.5723V15.9242C108.155 16.2761 108.266 16.5274 108.442 16.6279L107.759 16.1755C107.583 16.0499 107.473 15.8237 107.473 15.4718V15.1199C107.473 14.9188 107.517 14.7178 107.561 14.5167Z" fill="#D7E1E3"/>
<path d="M96.7012 21.1524C96.8554 20.9011 97.0316 20.7001 97.2298 20.5744L102.494 17.1058C102.758 16.9299 103.001 16.9048 103.155 17.0304L103.838 17.4828C103.661 17.3823 103.419 17.3823 103.177 17.5582L97.9126 21.0268C97.7144 21.1525 97.5382 21.3536 97.384 21.6049C97.2518 21.806 97.1417 22.0573 97.0756 22.3087C97.0095 22.5097 96.9875 22.7359 96.9875 22.9119V23.2638C96.9875 23.6157 97.0976 23.867 97.2738 23.9675L96.591 23.5151C96.4148 23.3894 96.3047 23.1632 96.3047 22.8113V22.4595C96.3047 22.2584 96.3488 22.0573 96.3928 21.8562C96.4589 21.6048 96.569 21.3786 96.7012 21.1524Z" fill="#D7E1E3"/>
<path d="M97.9354 21.029L103.2 17.5605C103.728 17.2086 104.147 17.4851 104.147 18.1888V18.5408C104.147 19.2194 103.728 20.074 103.2 20.4258L97.9354 23.8944C97.4068 24.2463 96.9883 23.9446 96.9883 23.266V22.9141C96.9883 22.2103 97.4068 21.3809 97.9354 21.029Z" fill="#ABB5B5"/>
<path d="M128.596 7.74947L12.7178 84.2833L8.86328 81.7195L128.596 2.64722L222.36 64.2764L218.483 66.8401L128.596 7.74947Z" fill="#A1ABAB"/>
<path style="mix-blend-mode:multiply" d="M128.596 6.70197L10.8456 84.4673L8.86328 82.9844L128.596 3.91211L222.36 65.5412L220.378 67.0242L128.596 6.70197Z" fill="url(#paint0_linear_459_939)"/>
<path d="M222.536 65.3146L96.2837 148.509L2.27734 86.5781L128.53 3.38379L222.536 65.3146Z" fill="#6481C6"/>
<path d="M0.890625 87.2751C0.890625 88.7078 1.72755 90.1405 3.37949 91.2464L88.091 146.919C91.3948 149.08 96.7251 149.08 100.007 146.919L223.792 65.157C225.422 64.0762 226.237 62.6687 226.237 61.2361V66.2127C226.237 67.6202 225.422 69.0529 223.792 70.1336L100.007 151.895C96.7251 154.082 91.3948 154.082 88.091 151.895L3.37949 96.223C1.72755 95.1422 0.890625 93.6844 0.890625 92.2517V87.2751Z" fill="url(#paint1_linear_459_939)"/>
<path d="M3.37844 91.2499L88.0899 146.922C91.3938 149.084 96.724 149.084 100.006 146.922L223.791 65.1605C227.073 62.9738 227.051 59.455 223.747 57.2935L139.036 1.62116C135.732 -0.540386 130.402 -0.540386 127.12 1.62116L3.33442 83.3829C0.0525638 85.5695 0.0745655 89.0883 3.37844 91.2499ZM8.86293 81.7491L128.617 2.67683L222.382 64.306L102.627 143.378L8.86293 81.7491Z" fill="#E9ECED"/>
<path d="M43.8401 112.211L45.8444 110.878C46.8576 110.225 48.5316 110.275 49.6769 111.029L56.8573 115.755C57.2317 116.006 57.5401 116.307 57.7163 116.659C58.1128 117.438 57.8705 118.268 57.1217 118.771L55.1173 120.103C54.1041 120.756 52.4301 120.706 51.2848 119.952L44.1044 115.227C43.7299 114.975 43.4216 114.674 43.2453 114.322C42.8489 113.543 43.0912 112.713 43.8401 112.211Z" fill="#B2B9BB"/>
<path opacity="0.9" d="M43.8402 112.985L45.8445 111.653C46.8577 111 48.5317 111.05 49.677 111.804L56.8574 116.529C57.2318 116.781 57.5402 117.082 57.7164 117.434C57.7825 117.56 57.8045 117.711 57.8265 117.836C57.7164 118.188 57.4741 118.54 57.0997 118.766L55.0953 120.099C54.0822 120.752 52.4082 120.702 51.2629 119.948L44.0824 115.222C43.708 114.971 43.3996 114.669 43.2234 114.318C43.1573 114.192 43.1353 114.041 43.1133 113.915C43.2234 113.564 43.4657 113.212 43.8402 112.985Z" fill="#E9ECED"/>
<path d="M176.172 32.037C177.163 32.6904 178.749 32.6904 179.718 32.037C180.687 31.3835 180.687 30.3278 179.718 29.6995C178.749 29.0711 177.141 29.046 176.172 29.6995C175.203 30.353 175.203 31.4086 176.172 32.037Z" fill="#212121"/>
<path opacity="0.1" d="M176.789 31.6036C177.427 32.0309 178.441 32.0058 179.057 31.6036C179.674 31.1763 179.674 30.5228 179.057 30.0956C178.419 29.6934 177.405 29.6934 176.789 30.0956C176.172 30.5228 176.172 31.1763 176.789 31.6036Z" fill="#D0D6D6"/>
<path opacity="0.1" d="M177.273 31.201C177.626 31.4272 178.176 31.4272 178.507 31.201C178.837 30.9747 178.837 30.5978 178.507 30.3716C178.154 30.1454 177.604 30.1454 177.273 30.3716C176.943 30.5978 176.943 30.9747 177.273 31.201Z" fill="#D0D6D6"/>
<g style="mix-blend-mode:screen" opacity="0.2">
<path d="M177.757 30.8513C177.889 30.9267 178.088 30.9267 178.22 30.8513C178.352 30.7759 178.352 30.6251 178.22 30.5497C178.088 30.4743 177.889 30.4743 177.757 30.5497C177.625 30.6251 177.625 30.7759 177.757 30.8513Z" fill="#D0D6D6"/>
</g>
<path d="M161.349 95.6267L82.4082 43.3223L135.446 9.24023L214.387 61.5446L161.349 95.6267Z" fill="#6481C6"/>
<path d="M82.4076 43.3145C80.7116 45.0236 79.0156 46.4311 77.3857 47.5119C76.5047 48.09 75.6237 48.5927 74.7206 49.02C73.9277 49.397 73.1347 49.6986 72.3418 49.9499L151.283 102.254C152.075 102.003 152.978 101.953 153.771 101.576C154.674 101.148 155.6 100.57 156.481 99.9923C158.133 98.9115 159.674 97.328 161.348 95.6189L82.4076 43.3145Z" fill="#6481C6"/>
<path d="M98.2439 138.071L19.2812 85.7411L72.3415 49.95L151.282 102.254L98.2439 138.071Z" fill="#6481C6"/>
<path d="M98.2439 139.482L19.3033 87.1773L19.2812 85.7446L98.2439 138.074V139.482Z" fill="#465F91"/>
<path d="M161.349 95.6204L214.387 61.5383V62.971L161.525 96.9525C160.512 97.8824 159.741 98.5611 158.97 99.1895C158.353 99.7173 157.803 100.119 157.252 100.496C156.944 100.697 156.613 100.974 156.305 101.175C155.997 101.376 155.666 101.527 155.38 101.728C154.807 102.08 154.256 102.407 153.684 102.683C152.869 103.06 152.098 103.387 151.305 103.689L98.2227 139.505V138.072L151.261 102.256C152.957 101.728 154.653 100.924 156.305 99.8178C157.957 98.737 159.653 97.3295 161.327 95.6204H161.349Z" fill="#526EAA"/>
<path d="M134.697 4.5918L78.157 41.3381L76.3949 42.4943L20.4492 79.869L98.2666 131.419L154.212 94.0698L155.974 92.9136L212.515 56.1422L134.697 4.5918Z" fill="#E5E5E5"/>
<path d="M98.2666 136.664L20.4492 85.0885V79.8606L98.2666 131.411V136.664Z" fill="#CDCDCD"/>
<path d="M155.975 92.9115L212.516 56.1653V61.3932L160.513 94.8217C160.446 94.872 159.169 96.4806 155.403 98.9689C151.416 101.608 150.337 101.533 150.271 101.583L98.2676 136.67V131.442L154.213 94.0677L155.975 92.9115Z" fill="#D7D7D7"/>
<path d="M211.325 55.709L133.529 4.15869C132.032 5.44054 130.402 6.64699 128.684 7.77803C120.116 13.4081 109.367 17.2536 100.402 20.4456C97.6272 21.4259 95.0281 22.3559 92.7595 23.2356C91.482 23.7383 90.2926 24.3666 89.1692 25.1207C81.328 30.2732 77.5176 40.1509 77.1211 41.2066L154.916 92.757C155.313 91.7013 159.123 81.8236 166.965 76.671C168.088 75.9422 169.277 75.2887 170.555 74.786C172.823 73.9063 175.422 72.9763 178.198 71.996C187.162 68.7789 197.911 64.9584 206.479 59.3283C208.197 58.1973 209.805 56.9909 211.325 55.709Z" fill="url(#paint2_linear_459_939)"/>
<path d="M98.4418 130.69L20.6465 79.1393L20.7126 78.511L98.5079 130.061L98.4418 130.69Z" fill="#CDCDCD"/>
<path d="M75.5792 39.8247C73.7511 38.6183 70.271 37.5877 65.0289 41.0311C63.9056 41.76 62.7162 42.69 61.4387 43.8713C59.192 45.9574 56.593 48.4709 53.8177 51.1351C44.8973 59.7059 34.1266 70.0612 25.5585 75.7164C23.8405 76.8474 22.2327 77.7774 20.7129 78.4811L98.5081 130.031C100.006 129.328 101.636 128.398 103.354 127.267C111.922 121.611 122.67 111.281 131.613 102.685C134.388 100.021 137.009 97.5078 139.234 95.4216C140.511 94.2403 141.701 93.3104 142.824 92.5815C148.088 89.1129 151.546 90.1434 153.375 91.375L75.5792 39.8247Z" fill="url(#paint3_linear_459_939)"/>
<path d="M211.324 55.7124C209.826 56.9942 208.197 58.2007 206.479 59.3317C197.91 64.9618 187.162 68.8074 178.197 71.9994C175.422 72.9797 172.823 73.9097 170.554 74.7894C169.277 75.2921 168.087 75.9204 166.964 76.6744C159.123 81.827 155.312 91.7047 154.916 92.7603L155.467 92.3833C156.326 90.2218 160.004 81.8521 166.942 77.2776C168.021 76.5487 169.189 75.9455 170.444 75.4428C172.691 74.538 175.312 73.608 178.087 72.6278C187.03 69.4357 197.8 65.6154 206.412 59.935C208.175 58.7788 209.826 57.5473 211.368 56.2403L211.302 55.7124H211.324Z" fill="#D7D7D7"/>
<path d="M142.823 92.5875C141.7 93.3164 140.511 94.2463 139.233 95.4276C136.987 97.5138 134.388 100.027 131.612 102.691C122.692 111.262 111.921 121.617 103.353 127.273C101.635 128.404 100.027 129.334 98.5075 130.037L98.4414 130.666C100.005 129.937 101.635 129.007 103.397 127.851C112.009 122.17 122.758 111.84 131.7 103.219C134.476 100.555 137.097 98.0416 139.321 95.9806C140.577 94.8244 141.744 93.9196 142.823 93.1907C149.762 88.6162 153.484 92.1099 154.343 93.1404L154.894 92.7634C154.497 92.2356 150.643 87.4098 142.801 92.5623L142.823 92.5875Z" fill="#D7D7D7"/>
<defs>
<linearGradient id="paint0_linear_459_939" x1="169.762" y1="44.1772" x2="89.6761" y2="44.1772" gradientUnits="userSpaceOnUse">
<stop stop-color="#A9B3B3"/>
<stop offset="1" stop-color="#B8C2C2"/>
</linearGradient>
<linearGradient id="paint1_linear_459_939" x1="102.584" y1="107.357" x2="86.6373" y2="107.357" gradientUnits="userSpaceOnUse">
<stop stop-color="#D6DCDD"/>
<stop offset="1" stop-color="#B2B9BB"/>
</linearGradient>
<linearGradient id="paint2_linear_459_939" x1="157.648" y1="21.7527" x2="121.966" y2="75.9231" gradientUnits="userSpaceOnUse">
<stop stop-color="#F6F6F6"/>
<stop offset="0.64" stop-color="#FAFAFA"/>
<stop offset="0.78" stop-color="#EEEEEE"/>
<stop offset="1" stop-color="#D4D4D4"/>
</linearGradient>
<linearGradient id="paint3_linear_459_939" x1="101.283" y1="56.7652" x2="66.777" y2="109.134" gradientUnits="userSpaceOnUse">
<stop stop-color="#EDEDED"/>
<stop offset="0.12" stop-color="#F7F7F7"/>
<stop offset="0.28" stop-color="#FAFAFA"/>
<stop offset="1" stop-color="#EFEFEF"/>
</linearGradient>
</defs>
</svg>
