<svg width="200" height="154" viewBox="0 0 200 154" fill="none" xmlns="http://www.w3.org/2000/svg">
<path d="M96.0417 13.6885L105.894 6.34931C106.363 5.99743 106.734 6.2739 106.734 6.97766V7.3295C106.734 8.00813 106.363 8.86269 105.894 9.21457L96.0417 16.5538C95.5726 16.9057 95.2012 16.6041 95.2012 15.9254V15.5735C95.2012 14.8698 95.5726 14.0403 96.0417 13.6885Z" fill="#ABB5B5"/>
<path d="M94.6734 14.5168C94.7321 14.2655 94.8298 14.0392 94.9471 13.813C95.0839 13.5617 95.2403 13.3606 95.4163 13.2349L105.268 5.89577C105.503 5.71983 105.718 5.6947 105.855 5.82037L106.461 6.27277C106.304 6.17223 106.089 6.17222 105.874 6.34816L96.0222 13.6873C95.8463 13.813 95.6899 14.0141 95.553 14.2654C95.4358 14.4665 95.338 14.7179 95.2794 14.9692C95.2208 15.1703 95.2012 15.3965 95.2012 15.5724V15.9243C95.2012 16.2762 95.2989 16.5275 95.4553 16.6281L94.8493 16.1757C94.693 16.05 94.5952 15.8238 94.5952 15.4719V15.12C94.5952 14.9189 94.6343 14.7179 94.6734 14.5168Z" fill="#D7E1E3"/>
<path d="M85.036 21.1525C85.1728 20.9012 85.3292 20.7002 85.5051 20.5745L90.177 17.106C90.4116 16.93 90.6267 16.9049 90.7635 17.0306L91.3695 17.483C91.2131 17.3824 90.9981 17.3824 90.783 17.5584L86.1111 21.0269C85.9352 21.1526 85.7788 21.3537 85.642 21.605C85.5247 21.8061 85.4269 22.0574 85.3683 22.3088C85.3096 22.5099 85.2901 22.736 85.2901 22.912V23.2639C85.2901 23.6158 85.3878 23.8671 85.5442 23.9676L84.9382 23.5152C84.7818 23.3895 84.6841 23.1633 84.6841 22.8114V22.4596C84.6841 22.2585 84.7232 22.0574 84.7623 21.8563C84.8209 21.605 84.9187 21.3788 85.036 21.1525Z" fill="#D7E1E3"/>
<path d="M86.1311 21.0292L90.8031 17.5606C91.2722 17.2087 91.6436 17.4852 91.6436 18.189V18.5409C91.6436 19.2195 91.2722 20.0741 90.8031 20.426L86.1311 23.8945C85.662 24.2464 85.2905 23.9448 85.2905 23.2661V22.9142C85.2905 22.2105 85.662 21.381 86.1311 21.0292Z" fill="#ABB5B5"/>
<path d="M113.341 7.74947L10.4995 84.2833L7.07861 81.7196L113.341 2.64722L196.557 64.2764L193.116 66.8401L113.341 7.74947Z" fill="#A1ABAB"/>
<path style="mix-blend-mode:multiply" d="M113.341 6.70197L8.83792 84.4673L7.07861 82.9844L113.341 3.91211L196.557 65.5413L194.798 67.0242L113.341 6.70197Z" fill="url(#paint0_linear_388_259)"/>
<path d="M196.713 65.3146L84.6646 148.509L1.23389 86.5781L113.283 3.38379L196.713 65.3146Z" fill="#6481C6"/>
<path d="M0.00292969 87.2753C0.00292969 88.7079 0.745701 90.1406 2.2118 91.2465L77.3932 146.919C80.3254 149.08 85.056 149.08 87.9687 146.919L197.828 65.1571C199.275 64.0764 199.998 62.6689 199.998 61.2362V66.2128C199.998 67.6203 199.275 69.053 197.828 70.1338L87.9687 151.895C85.056 154.082 80.3254 154.082 77.3932 151.895L2.2118 96.2231C0.745701 95.1423 0.00292969 93.6845 0.00292969 92.2519V87.2753Z" fill="url(#paint1_linear_388_259)"/>
<path d="M2.21141 91.2499L77.3928 146.922C80.325 149.084 85.0556 149.084 87.9683 146.922L197.828 65.1605C200.74 62.9738 200.721 59.455 197.789 57.2935L122.607 1.62116C119.675 -0.540386 114.944 -0.540386 112.032 1.62116L2.17233 83.3829C-0.740313 85.5695 -0.720786 89.0883 2.21141 91.2499ZM7.07888 81.7491L113.361 2.67683L196.577 64.306L90.2944 143.378L7.07888 81.7491Z" fill="#E9ECED"/>
<path d="M38.1211 112.211L39.8999 110.878C40.7991 110.225 42.2848 110.275 43.3013 111.029L49.6739 115.755C50.0062 116.006 50.2799 116.307 50.4363 116.659C50.7881 117.438 50.5731 118.268 49.9085 118.771L48.1296 120.103C47.2304 120.756 45.7447 120.706 44.7282 119.952L38.3557 115.227C38.0233 114.975 37.7496 114.674 37.5933 114.322C37.2414 113.543 37.4565 112.713 38.1211 112.211Z" fill="#B2B9BB"/>
<path opacity="0.9" d="M38.1207 112.986L39.8995 111.653C40.7987 111 42.2844 111.05 43.3009 111.804L49.6735 116.53C50.0058 116.781 50.2795 117.082 50.4359 117.434C50.4945 117.56 50.514 117.711 50.5336 117.836C50.4359 118.188 50.2209 118.54 49.8885 118.767L48.1097 120.099C47.2105 120.752 45.7248 120.702 44.7083 119.948L38.3357 115.223C38.0034 114.971 37.7297 114.67 37.5733 114.318C37.5147 114.192 37.4951 114.041 37.4756 113.916C37.5733 113.564 37.7884 113.212 38.1207 112.986Z" fill="#E9ECED"/>
<path d="M155.565 32.037C156.445 32.6904 157.852 32.6904 158.712 32.037C159.572 31.3835 159.572 30.3278 158.712 29.6995C157.852 29.0711 156.425 29.046 155.565 29.6995C154.705 30.353 154.705 31.4086 155.565 32.037Z" fill="#212121"/>
<path opacity="0.1" d="M156.113 31.6037C156.68 32.031 157.579 32.0059 158.126 31.6037C158.673 31.1765 158.673 30.523 158.126 30.0957C157.559 29.6935 156.66 29.6935 156.113 30.0957C155.565 30.523 155.565 31.1765 156.113 31.6037Z" fill="#D0D6D6"/>
<path opacity="0.1" d="M156.543 31.2011C156.855 31.4273 157.344 31.4273 157.637 31.2011C157.931 30.9749 157.931 30.5979 157.637 30.3717C157.325 30.1455 156.836 30.1455 156.543 30.3717C156.249 30.5979 156.249 30.9749 156.543 31.2011Z" fill="#D0D6D6"/>
<g style="mix-blend-mode:screen" opacity="0.2">
<path d="M156.973 30.8514C157.09 30.9268 157.266 30.9268 157.383 30.8514C157.501 30.776 157.501 30.6252 157.383 30.5498C157.266 30.4744 157.09 30.4744 156.973 30.5498C156.855 30.6252 156.855 30.776 156.973 30.8514Z" fill="#D0D6D6"/>
</g>
<path d="M142.409 95.6268L72.3496 43.3224L119.421 9.24036L189.481 61.5447L142.409 95.6268Z" fill="#6481C6"/>
<path d="M72.3494 43.3147C70.8442 45.0238 69.3391 46.4314 67.8925 47.5122C67.1106 48.0902 66.3287 48.5929 65.5272 49.0202C64.8235 49.3972 64.1197 49.6988 63.416 49.9502L133.476 102.255C134.18 102.003 134.981 101.953 135.685 101.576C136.486 101.149 137.307 100.571 138.089 99.9925C139.555 98.9117 140.924 97.3282 142.409 95.6191L72.3494 43.3147Z" fill="#6481C6"/>
<path d="M86.4041 138.071L16.3247 85.7413L63.4157 49.9502L133.476 102.255L86.4041 138.071Z" fill="#6481C6"/>
<path d="M86.4041 139.482L16.3443 87.1775L16.3247 85.7449L86.4041 138.074V139.482Z" fill="#465F91"/>
<path d="M142.409 95.6204L189.481 61.5383V62.971L142.566 96.9525C141.666 97.8824 140.982 98.5611 140.298 99.1895C139.751 99.7173 139.262 100.119 138.773 100.496C138.5 100.697 138.206 100.974 137.933 101.175C137.659 101.376 137.366 101.527 137.112 101.728C136.603 102.08 136.115 102.407 135.607 102.683C134.883 103.06 134.199 103.387 133.495 103.689L86.3848 139.505V138.072L133.456 102.256C134.961 101.728 136.467 100.924 137.933 99.8178C139.399 98.737 140.904 97.3295 142.39 95.6204H142.409Z" fill="#526EAA"/>
<path d="M118.757 4.59192L68.577 41.3382L67.0131 42.4944L17.3613 79.8691L86.4242 131.419L136.076 94.0699L137.64 92.9138L187.819 56.1423L118.757 4.59192Z" fill="#E5E5E5"/>
<path d="M86.4242 136.664L17.3613 85.0885V79.8606L86.4242 131.411V136.664Z" fill="#CDCDCD"/>
<path d="M137.64 92.9118L187.819 56.1655V61.3934L141.667 94.8219C141.608 94.8722 140.474 96.4809 137.132 98.9692C133.594 101.608 132.636 101.533 132.577 101.583L86.4243 136.671V131.443L136.076 94.0679L137.64 92.9118Z" fill="#D7D7D7"/>
<path d="M186.763 55.7088L117.72 4.15845C116.391 5.44029 114.944 6.64674 113.419 7.77779C105.815 13.4079 96.2759 17.2533 88.3199 20.4454C85.8569 21.4256 83.5502 22.3556 81.5368 23.2353C80.403 23.738 79.3474 24.3664 78.3504 25.1204C71.3914 30.2729 68.0096 40.1507 67.6577 41.2063L136.701 92.7567C137.053 91.7011 140.435 81.8233 147.394 76.6708C148.391 75.9419 149.446 75.2884 150.58 74.7857C152.594 73.906 154.9 72.976 157.363 71.9958C165.319 68.7786 174.859 64.9582 182.463 59.3281C183.988 58.1971 185.415 56.9906 186.763 55.7088Z" fill="url(#paint2_linear_388_259)"/>
<path d="M86.5805 130.69L17.5371 79.1393L17.5958 78.511L86.6391 130.061L86.5805 130.69Z" fill="#CDCDCD"/>
<path d="M66.2901 39.8245C64.6676 38.618 61.5791 37.5875 56.9266 41.0309C55.9297 41.7598 54.8741 42.6897 53.7403 43.871C51.7464 45.9572 49.4398 48.4706 46.9767 51.1349C39.0598 59.7057 29.5009 70.061 21.8967 75.7162C20.372 76.8472 18.945 77.7771 17.5962 78.4809L86.6395 130.031C87.9687 129.327 89.4153 128.397 90.94 127.266C98.5442 121.611 108.084 111.281 116.02 102.685C118.483 100.021 120.809 97.5075 122.784 95.4214C123.917 94.2401 124.973 93.3101 125.97 92.5812C130.642 89.1127 133.711 90.1432 135.333 91.3748L66.2901 39.8245Z" fill="url(#paint3_linear_388_259)"/>
<path d="M186.763 55.7122C185.434 56.994 183.988 58.2005 182.463 59.3315C174.859 64.9616 165.319 68.8071 157.363 71.9992C154.9 72.9794 152.594 73.9094 150.58 74.7891C149.446 75.2918 148.391 75.9202 147.394 76.6742C140.435 81.8267 137.053 91.7045 136.701 92.7601L137.19 92.3831C137.952 90.2216 141.217 81.8518 147.374 77.2774C148.332 76.5485 149.368 75.9452 150.482 75.4426C152.476 74.5377 154.803 73.6078 157.266 72.6275C165.202 69.4355 174.761 65.6151 182.404 59.9348C183.968 58.7786 185.434 57.547 186.803 56.24L186.744 55.7122H186.763Z" fill="#D7D7D7"/>
<path d="M125.969 92.5873C124.972 93.3162 123.917 94.2462 122.783 95.4275C120.789 97.5137 118.482 100.027 116.019 102.691C108.102 111.262 98.5434 121.617 90.9393 127.273C89.4146 128.404 87.9875 129.334 86.6387 130.037L86.5801 130.666C87.968 129.937 89.4145 129.007 90.9784 127.851C98.6216 122.17 108.161 111.84 116.097 103.219C118.561 100.555 120.887 98.0415 122.861 95.9805C123.975 94.8243 125.011 93.9194 125.969 93.1905C132.127 88.6161 135.43 92.1098 136.193 93.1403L136.681 92.7633C136.33 92.2355 132.909 87.4097 125.95 92.5622L125.969 92.5873Z" fill="#D7D7D7"/>
<defs>
<linearGradient id="paint0_linear_388_259" x1="149.876" y1="44.1772" x2="78.8" y2="44.1772" gradientUnits="userSpaceOnUse">
<stop stop-color="#A9B3B3"/>
<stop offset="1" stop-color="#B8C2C2"/>
</linearGradient>
<linearGradient id="paint1_linear_388_259" x1="90.2558" y1="107.358" x2="76.1031" y2="107.358" gradientUnits="userSpaceOnUse">
<stop stop-color="#D6DCDD"/>
<stop offset="1" stop-color="#B2B9BB"/>
</linearGradient>
<linearGradient id="paint2_linear_388_259" x1="139.125" y1="21.7524" x2="101.953" y2="71.8373" gradientUnits="userSpaceOnUse">
<stop stop-color="#F6F6F6"/>
<stop offset="0.64" stop-color="#FAFAFA"/>
<stop offset="0.78" stop-color="#EEEEEE"/>
<stop offset="1" stop-color="#D4D4D4"/>
</linearGradient>
<linearGradient id="paint3_linear_388_259" x1="89.1025" y1="56.7649" x2="53.1557" y2="105.183" gradientUnits="userSpaceOnUse">
<stop stop-color="#EDEDED"/>
<stop offset="0.12" stop-color="#F7F7F7"/>
<stop offset="0.28" stop-color="#FAFAFA"/>
<stop offset="1" stop-color="#EFEFEF"/>
</linearGradient>
</defs>
</svg>
