<svg width="26" height="22" viewBox="0 0 26 22" fill="none" xmlns="http://www.w3.org/2000/svg">
<path d="M25.4897 16.8624C25.4878 17.9656 25.0477 19.0228 24.2663 19.8014C23.4849 20.5801 22.4262 21.0165 21.3231 21.0145L4.64188 20.9854C4.09566 20.9845 3.55498 20.876 3.0507 20.6661C2.54643 20.4562 2.08844 20.149 1.70288 19.7621C1.31732 19.3752 1.01174 18.9161 0.80359 18.4111C0.595442 17.9061 0.4888 17.365 0.489752 16.8188L0.510159 5.13757C0.512088 4.03444 0.952154 2.97726 1.73355 2.19859C2.51494 1.41993 3.57365 0.983555 4.67678 0.98548L21.358 1.01457C21.9042 1.01553 22.4449 1.12405 22.9492 1.33396C23.4535 1.54387 23.9114 1.85104 24.297 2.23795C24.6826 2.62486 24.9881 3.08392 25.1963 3.58892C25.4044 4.09392 25.5111 4.63498 25.5101 5.1812L25.4897 16.8624ZM4.77181 7.04689C7.4614 8.48855 10.1499 9.94584 12.8374 11.4188C12.8892 11.4467 12.947 11.4613 13.0054 11.4613C13.0638 11.4613 13.121 11.4467 13.1718 11.4188L23.4531 5.85314C23.5041 5.82557 23.5467 5.78488 23.5764 5.73537C23.6061 5.68586 23.6218 5.62937 23.6218 5.57189C23.6406 4.32397 23.226 3.50834 22.3781 3.12501C22.0072 2.95834 21.2124 2.87501 19.9937 2.87501C15.2062 2.87501 10.4176 2.87501 5.62806 2.87501C4.5739 2.87501 3.83431 3.00001 3.40931 3.25001C2.64056 3.70001 2.29786 4.48022 2.38119 5.59064C2.38422 5.63765 2.39981 5.6837 2.42654 5.72462C2.45328 5.76554 2.49032 5.80004 2.53431 5.82501C3.27598 6.23751 4.02182 6.6448 4.77181 7.04689ZM5.36556 9.49376C4.41765 8.98334 3.48536 8.47709 2.56869 7.97501C2.54868 7.96418 2.5262 7.95873 2.50345 7.9592C2.4807 7.95968 2.45847 7.96606 2.43893 7.97772C2.41939 7.98938 2.40322 8.00592 2.392 8.02571C2.38078 8.04551 2.3749 8.06788 2.37494 8.09064C2.37494 10.7302 2.37494 13.3656 2.37494 15.9969C2.37494 17.0094 2.50202 17.7146 2.75619 18.1125C3.18536 18.7875 3.91765 19.125 4.95306 19.125C10.0656 19.125 15.1781 19.125 20.2906 19.125C21.3843 19.125 22.1291 19.0115 22.5249 18.7844C23.2583 18.3636 23.6249 17.5917 23.6249 16.4688C23.6249 13.7333 23.6249 10.9729 23.6249 8.18751C23.6249 8.15522 23.6165 8.12349 23.6006 8.09538C23.5847 8.06728 23.5618 8.04376 23.5342 8.0271C23.5065 8.01044 23.475 8.0012 23.4427 8.00029C23.4105 7.99938 23.3785 8.00682 23.3499 8.02189L13.4781 13.375C13.1572 13.5479 12.8364 13.5469 12.5156 13.3719C10.1697 12.0865 7.7864 10.7938 5.36556 9.49376Z" fill="white"/>
</svg>
