<svg width="23" height="23" viewBox="0 0 23 23" fill="none" xmlns="http://www.w3.org/2000/svg">
<path d="M22.2034 17.7866C22.6856 18.0733 22.9423 18.4555 22.9734 18.9333C22.9934 19.2599 22.8689 19.6555 22.6001 20.1199C21.1801 22.5799 18.9801 23.4288 16.0001 22.6666C15.0089 22.4133 13.8023 21.7833 12.3801 20.7766C8.1445 17.7811 4.63561 14.2377 1.85338 10.1466C1.37116 9.4355 0.954496 8.62328 0.603385 7.70995C0.214496 6.7055 0.0256067 5.82217 0.0367178 5.05995C0.0589401 3.39106 0.803384 1.96106 2.27005 0.769945C3.32338 -0.0811661 4.19116 -0.190055 4.87338 0.443278C5.02672 0.5855 5.42116 1.1955 6.05672 2.27328C6.56339 3.13106 7.06561 3.99217 7.56338 4.85661C7.96338 5.55439 8.17561 5.94328 8.20005 6.02328C8.34227 6.4855 8.25561 6.9555 7.94005 7.43328C7.5845 7.97328 7.23894 8.53106 6.90338 9.10661C6.62338 9.58883 6.64672 10.0555 6.97338 10.5066C8.20227 12.2111 9.70227 13.7822 11.4734 15.2199C12.1778 15.7933 12.5723 16.1011 12.6567 16.1433C13.1701 16.3944 13.7223 16.3199 14.3134 15.9199C14.8689 15.5444 15.4389 15.1888 16.0234 14.8533C16.3967 14.6399 16.7689 14.6388 17.1401 14.8499C18.8378 15.8166 20.5256 16.7955 22.2034 17.7866Z" fill="white"/>
</svg>
