<svg width="200" height="153" viewBox="0 0 200 153" fill="none" xmlns="http://www.w3.org/2000/svg">
<path d="M200 80.412L117.976 135.977L0.393066 56.3345L82.4169 0.769165L200 80.412Z" fill="#E0DFDF"/>
<path d="M199.607 79.6428L117.583 135.208L0 55.5653L82.0238 0L199.607 79.6428Z" fill="url(#paint0_linear_388_2276)"/>
<path d="M51.2732 63.4886L36.2147 73.694L34.4663 72.4888L49.5029 62.3091L51.2732 63.4886Z" fill="#B3B3B3"/>
<path d="M71.446 51.5652L67.3589 54.3345L63.272 51.5652L67.3589 48.7959L71.446 51.5652ZM67.3589 53.6165L70.3969 51.5652L67.3589 49.5139L64.3211 51.5652L67.3589 53.6165Z" fill="#B3B3B3"/>
<path d="M60.0809 64.5401L41.3945 77.207L39.646 76.0019L58.3106 63.3606L60.0809 64.5401Z" fill="#B3B3B3"/>
<path d="M76.6257 55.0786L72.5387 57.8479L68.4517 55.0786L72.5387 52.3093L76.6257 55.0786ZM72.5387 57.1299L75.5766 55.0786L72.5387 53.0273L69.5007 55.0786L72.5387 57.1299Z" fill="#B3B3B3"/>
<path d="M68.2543 66.0274L46.5737 80.6944L44.8252 79.5149L66.5059 64.8479L68.2543 66.0274Z" fill="#B3B3B3"/>
<path d="M81.8268 58.5908L77.7398 61.3601L73.6528 58.5908L77.7398 55.8215L81.8268 58.5908ZM77.7398 60.6422L80.7778 58.5908L77.7398 56.5395L74.7019 58.5908L77.7398 60.6422Z" fill="#B3B3B3"/>
<path d="M73.4345 69.5404L51.7539 84.2074L50.0054 83.028L71.6861 68.3353L73.4345 69.5404Z" fill="#B3B3B3"/>
<path d="M87.007 62.1039L82.92 64.8732L78.833 62.1039L82.92 59.3346L87.007 62.1039ZM82.92 64.1552L85.9579 62.1039L82.92 60.0526L79.8821 62.1039L82.92 64.1552Z" fill="#B3B3B3"/>
<path d="M81.1276 71.3349L56.9335 87.7199L55.1851 86.5404L79.3791 70.1554L81.1276 71.3349Z" fill="#B3B3B3"/>
<path d="M92.1866 65.617L88.0997 68.3863L84.0127 65.617L88.0997 62.8477L92.1866 65.617ZM88.0997 67.6683L91.1376 65.617L88.0997 63.5657L85.0617 65.617L88.0997 67.6683Z" fill="#B3B3B3"/>
<path d="M87.3782 74.1298L62.1132 91.2328L60.3647 90.0533L85.6079 72.9503L87.3782 74.1298Z" fill="#B3B3B3"/>
<path d="M97.3668 69.1304L93.2798 71.8997L89.1929 69.1304L93.2798 66.3611L97.3668 69.1304ZM93.2798 71.1817L96.3177 69.1304L93.2798 67.079L90.2419 69.1304L93.2798 71.1817Z" fill="#B3B3B3"/>
<path d="M90.8094 78.8221L67.2928 94.7455L65.5444 93.566L89.0391 77.6426L90.8094 78.8221Z" fill="#B3B3B3"/>
<path d="M102.546 72.6167L98.459 75.386L94.3721 72.6167L98.459 69.8474L102.546 72.6167ZM98.459 74.668L101.497 72.6167L98.459 70.5654L95.4211 72.6167L98.459 74.668Z" fill="#B3B3B3"/>
<path d="M89.9356 86.4123L72.473 98.2587L70.7246 97.0536L88.1872 85.2328L89.9356 86.4123Z" fill="#B3B3B3"/>
<path d="M107.726 76.1301L103.639 78.8994L99.5518 76.1301L103.639 73.3608L107.726 76.1301ZM103.639 78.1815L106.677 76.1301L103.639 74.0788L100.601 76.1301L103.639 78.1815Z" fill="#B3B3B3"/>
<path d="M99.3334 87.0789L77.6528 101.772L75.9043 100.566L97.585 85.8994L99.3334 87.0789Z" fill="#B3B3B3"/>
<path d="M112.906 79.6427L108.819 82.412L104.732 79.6427L108.819 76.8734L112.906 79.6427ZM108.819 81.694L111.857 79.6427L108.819 77.5914L105.781 79.6427L108.819 81.694Z" fill="#B3B3B3"/>
<path d="M104.513 90.5924L82.8543 105.259L81.084 104.08L102.765 89.4128L104.513 90.5924Z" fill="#B3B3B3"/>
<path d="M118.086 83.1561L113.999 85.9254L109.912 83.1561L113.999 80.3868L118.086 83.1561ZM113.999 85.2074L117.037 83.1561L113.999 81.1048L110.961 83.1561L113.999 85.2074Z" fill="#B3B3B3"/>
<path d="M99.3546 101.105L88.0335 108.772L86.2632 107.592L97.6061 99.9255L99.3546 101.105Z" fill="#B3B3B3"/>
<path d="M123.265 86.6683L119.178 89.4376L115.091 86.6683L119.178 83.899L123.265 86.6683ZM119.178 88.7197L122.216 86.6683L119.178 84.617L116.14 86.6683L119.178 88.7197Z" fill="#B3B3B3"/>
<path d="M108.316 102.131L93.2577 112.336L91.5093 111.131L106.568 100.951L108.316 102.131Z" fill="#B3B3B3"/>
<path d="M128.51 90.2079L124.423 92.9772L120.336 90.2079L124.423 87.4386L128.51 90.2079ZM124.423 92.2592L127.461 90.2079L124.423 88.1566L121.385 90.2079L124.423 92.2592Z" fill="#B3B3B3"/>
<path d="M117.124 103.182L98.4593 115.849L96.689 114.644L115.375 102.003L117.124 103.182Z" fill="#B3B3B3"/>
<path d="M133.69 93.7208L129.603 96.4901L125.516 93.7208L129.603 90.9515L133.69 93.7208ZM129.603 95.7722L132.641 93.7208L129.603 91.6695L126.565 93.7208L129.603 95.7722Z" fill="#B3B3B3"/>
<path d="M125.298 104.669L103.639 119.362L101.869 118.156L123.549 103.489L125.298 104.669Z" fill="#B3B3B3"/>
<path d="M138.87 97.2335L134.783 100.003L130.696 97.2335L134.783 94.4642L138.87 97.2335ZM134.783 99.2849L137.821 97.2335L134.783 95.1822L131.745 97.2335L134.783 99.2849Z" fill="#B3B3B3"/>
<path d="M130.477 108.182L108.819 122.849L107.048 121.67L128.729 106.977L130.477 108.182Z" fill="#B3B3B3"/>
<path d="M144.049 100.747L139.962 103.516L135.875 100.747L139.962 97.9777L144.049 100.747ZM139.962 102.798L143 100.747L139.962 98.6956L136.925 100.747L139.962 102.798Z" fill="#B3B3B3"/>
<path d="M138.192 109.977L113.998 126.362L112.228 125.183L136.422 108.798L138.192 109.977Z" fill="#B3B3B3"/>
<path d="M149.23 104.259L145.143 107.028L141.056 104.259L145.143 101.49L149.23 104.259ZM145.143 106.31L148.181 104.259L145.143 102.207L142.105 104.259L145.143 106.31Z" fill="#B3B3B3"/>
<path d="M89.1707 37.8215L74.1122 48.0012L72.3638 46.8217L87.4223 36.6163L89.1707 37.8215Z" fill="#B3B3B3"/>
<path d="M109.365 25.8976L105.278 28.6669L101.191 25.8976L105.278 23.1283L109.365 25.8976ZM105.278 27.9489L108.316 25.8976L105.278 23.8463L102.24 25.8976L105.278 27.9489Z" fill="#B3B3B3"/>
<path d="M97.9784 38.873L79.3138 51.5143L77.5435 50.3348L96.23 37.6935L97.9784 38.873Z" fill="#B3B3B3"/>
<path d="M114.545 29.411L110.458 32.1803L106.371 29.411L110.458 26.6417L114.545 29.411ZM110.458 31.4624L113.496 29.411L110.458 27.3597L107.42 29.411L110.458 31.4624Z" fill="#B3B3B3"/>
<path d="M106.152 40.3599L84.4934 55.0269L82.7231 53.8474L104.404 39.1548L106.152 40.3599Z" fill="#B3B3B3"/>
<path d="M119.725 32.9241L115.638 35.6934L111.551 32.9241L115.638 30.1548L119.725 32.9241ZM115.638 34.9754L118.676 32.9241L115.638 30.8728L112.6 32.9241L115.638 34.9754Z" fill="#B3B3B3"/>
<path d="M111.332 43.8474L89.6731 58.54L87.9028 57.3605L109.583 42.6678L111.332 43.8474Z" fill="#B3B3B3"/>
<path d="M124.904 36.4371L120.817 39.2064L116.73 36.4371L120.817 33.6678L124.904 36.4371ZM120.817 38.4884L123.855 36.4371L120.817 34.3858L117.779 36.4371L120.817 38.4884Z" fill="#B3B3B3"/>
<path d="M119.047 45.6682L94.8528 62.0532L93.0825 60.848L117.277 44.463L119.047 45.6682Z" fill="#B3B3B3"/>
<path d="M130.084 39.9238L125.997 42.6931L121.91 39.9238L125.997 37.1545L130.084 39.9238ZM125.997 41.9751L129.035 39.9238L125.997 37.8725L122.959 39.9238L125.997 41.9751Z" fill="#B3B3B3"/>
<path d="M125.276 48.4627L100.033 65.5657L98.2622 64.3605L123.527 47.2576L125.276 48.4627Z" fill="#B3B3B3"/>
<path d="M135.264 43.4369L131.177 46.2062L127.09 43.4369L131.177 40.6676L135.264 43.4369ZM131.177 45.4882L134.215 43.4369L131.177 41.3856L128.139 43.4369L131.177 45.4882Z" fill="#B3B3B3"/>
<path d="M128.707 53.1555L105.212 69.0789L103.442 67.8738L126.958 51.9503L128.707 53.1555Z" fill="#B3B3B3"/>
<path d="M140.444 46.9498L136.357 49.7191L132.27 46.9498L136.357 44.1805L140.444 46.9498ZM136.357 49.0012L139.395 46.9498L136.357 44.8985L133.319 46.9498L136.357 49.0012Z" fill="#B3B3B3"/>
<path d="M127.854 60.7451L110.392 72.5659L108.622 71.3863L126.084 59.5656L127.854 60.7451Z" fill="#B3B3B3"/>
<path d="M145.624 50.4629L141.537 53.2322L137.45 50.4629L141.537 47.6936L145.624 50.4629ZM141.537 52.5142L144.575 50.4629L141.537 48.4116L138.499 50.4629L141.537 52.5142Z" fill="#B3B3B3"/>
<path d="M137.231 61.4115L115.572 76.0785L113.802 74.899L135.482 60.2063L137.231 61.4115Z" fill="#B3B3B3"/>
<path d="M150.803 53.9756L146.716 56.7449L142.629 53.9756L146.716 51.2063L150.803 53.9756ZM146.716 56.0269L149.754 53.9756L146.716 51.9243L143.678 53.9756L146.716 56.0269Z" fill="#B3B3B3"/>
<path d="M142.432 64.9244L120.752 79.5914L118.981 78.4119L140.662 63.7192L142.432 64.9244Z" fill="#B3B3B3"/>
<path d="M155.983 57.489L151.896 60.2583L147.809 57.489L151.896 54.7197L155.983 57.489ZM151.896 59.5404L154.934 57.489L151.896 55.4377L148.858 57.489L151.896 59.5404Z" fill="#B3B3B3"/>
<path d="M137.253 75.4372L125.932 83.1041L124.183 81.9245L135.504 74.2321L137.253 75.4372Z" fill="#B3B3B3"/>
<path d="M161.163 61.0012L157.076 63.7705L152.989 61.0012L157.076 58.2319L161.163 61.0012ZM157.076 63.0525L160.114 61.0012L157.076 58.9499L154.038 61.0012L157.076 63.0525Z" fill="#B3B3B3"/>
<path d="M152.835 71.976L131.155 86.643L129.406 85.4635L151.087 70.7709L152.835 71.976Z" fill="#B3B3B3"/>
<path d="M166.407 64.5407L162.32 67.31L158.233 64.5407L162.32 61.7714L166.407 64.5407ZM162.32 66.592L165.358 64.5407L162.32 62.4893L159.282 64.5407L162.32 66.592Z" fill="#B3B3B3"/>
<path d="M158.015 75.4891L136.334 90.1561L134.586 88.9766L156.267 74.2839L158.015 75.4891Z" fill="#B3B3B3"/>
<path d="M171.588 68.0532L167.501 70.8225L163.414 68.0532L167.501 65.2839L171.588 68.0532ZM167.501 70.1045L170.539 68.0532L167.501 66.0019L164.463 68.0532L167.501 70.1045Z" fill="#B3B3B3"/>
<path d="M165.73 77.2842L141.536 93.6692L139.766 92.4897L163.96 76.1047L165.73 77.2842Z" fill="#B3B3B3"/>
<path d="M176.767 71.5659L172.68 74.3352L168.593 71.5659L172.68 68.7966L176.767 71.5659ZM172.68 73.6173L175.718 71.5659L172.68 69.5146L169.642 71.5659L172.68 73.6173Z" fill="#B3B3B3"/>
<path d="M161.447 94.5405L161.578 94.6431L183.805 79.5915L183.674 79.4889L161.447 94.5405Z" fill="#B3B3B3"/>
<g opacity="0.8">
<path d="M15.3427 59.6169L15.8454 59.2835C14.2281 57.9245 14.2062 57.4373 16.1732 56.104L17.1567 55.4373L26.5764 61.8221C27.5162 62.4631 27.4944 62.5144 25.8115 63.7965L26.2923 64.1298L31.6251 60.5143L31.1443 60.181C29.2647 61.3349 29.1772 61.3349 28.2374 60.6938L18.8177 54.3091L19.8012 53.6424C21.7464 52.309 22.4676 52.3346 24.5002 53.4372L25.0029 53.1039L22.2272 51.2321L12.5889 57.7707L15.3646 59.6425L15.3427 59.6169Z" fill="#4C4C4C"/>
<path d="M39.4489 54.3857C38.6621 54.9242 38.0283 55.3088 37.5475 55.437C37.0448 55.5652 36.6951 55.437 35.8864 54.8729L32.1929 52.3857L34.5314 50.7959C35.952 49.8215 36.411 50.0523 37.6131 50.6677L38.1158 50.3343L34.597 47.9497L34.0943 48.283C34.9904 49.0779 35.3182 49.4112 33.8976 50.36L31.5591 51.9497L27.5158 49.2061C26.9913 48.8471 26.9913 48.7445 27.5158 48.3856L29.155 47.283C31.0564 46.0009 31.865 46.0265 33.832 47.0266L34.3347 46.6932L31.6028 44.847L23.1665 50.5651L23.6473 50.8985C25.2209 49.9754 25.2865 49.9754 26.2263 50.6164L34.6844 56.3345C35.6242 56.9755 35.6242 57.0012 34.2473 58.0781L34.7281 58.4114L43.5796 52.4113L40.8914 50.3087L40.3887 50.642C42.0497 52.2831 41.547 52.9754 39.4489 54.3857Z" fill="#4C4C4C"/>
<path d="M42.64 43.8729L41.8969 44.1037C40.3671 44.5909 38.7061 44.7191 37.7007 44.0524C36.4768 43.2319 36.3238 42.1293 37.7007 41.1549C39.1432 40.1805 40.7604 40.2062 42.7056 41.1549L43.2302 40.7959L40.8697 39.2062C39.8425 39.2831 38.4219 39.8729 37.2855 40.6421C35.2529 42.0267 34.4661 43.9242 36.6735 45.4371C38.422 46.6166 40.7386 46.3089 43.1209 45.5396L43.5361 45.4114C44.5633 45.1037 46.9019 44.5396 48.388 45.5653C49.8305 46.5397 49.765 47.7448 48.2788 48.7448C46.7052 49.7961 44.454 49.6936 42.1592 48.6936L41.6347 49.0525L44.4759 50.7449C45.8965 50.7193 47.6013 49.9756 48.7596 49.2064C51.7101 47.2063 51.2074 45.2576 49.5027 44.1037C47.5357 42.7703 45.2627 43.0524 42.5963 43.8729H42.64Z" fill="#4C4C4C"/>
<path d="M42.1157 37.7184L44.8914 39.5903L45.3941 39.2569C43.7767 37.8979 43.7549 37.4107 45.7219 36.0774L46.7054 35.4107L56.1251 41.7954C57.0649 42.4365 57.0431 42.4878 55.3602 43.7699L55.841 44.1032L61.1738 40.4877L60.6929 40.1544C58.8134 41.3083 58.726 41.3082 57.7862 40.6672L48.3664 34.2824L49.3499 33.6158C51.295 32.2824 52.0163 32.308 54.0488 33.4106L54.5515 33.0773L51.7759 31.2054L42.1376 37.7441L42.1157 37.7184Z" fill="#4C4C4C"/>
</g>
<path d="M181.838 75.7198C181.838 75.7198 180.571 78.7199 179.237 81.7456C179.194 81.7456 179.15 81.72 179.106 81.6943C179.434 80.3866 179.609 79.2584 179.631 79.1558C179.959 78.0019 180.177 77.0276 180.287 76.4122C180.352 76.3609 180.396 76.3353 180.396 76.3353C180.396 76.3353 180.396 76.3352 180.396 76.284V75.7455C180.396 75.7455 180.352 75.6942 180.308 75.6942C180.265 75.6942 180.221 75.6942 180.221 75.7455C180.221 75.7455 180.177 75.9763 180.112 76.3609C179.063 77.2327 172.921 82.438 173.73 84.7457C173.883 85.1816 174.276 85.4893 174.888 85.6432C175.347 85.7714 175.784 85.7457 176.2 85.5919C176.309 85.5406 176.418 85.4893 176.527 85.438C176.593 85.4893 176.68 85.5149 176.768 85.5406C175.937 86.8227 174.954 87.874 173.817 88.3612C173.052 88.6689 172.244 88.7201 171.413 88.515C170.911 88.3868 170.583 88.156 170.43 87.7971C170.32 87.515 170.32 87.156 170.43 86.7714L172.113 83.9764L172.047 85.2329C172.047 85.2329 172.069 85.2841 172.113 85.2841C172.156 85.2841 172.2 85.2842 172.222 85.2585L175.675 80.2071C175.675 80.2071 175.675 80.1558 175.653 80.1302C175.609 80.1302 175.566 80.1302 175.544 80.1302C175.413 80.2584 173.664 81.8226 172.2 83.5918C172.2 83.5918 172.156 83.5918 172.156 83.6175L172.113 83.6944C171.413 84.5406 170.801 85.438 170.473 86.2072L170.67 85.3354C170.67 85.3354 170.67 85.2841 170.626 85.2841C170.583 85.2841 170.539 85.2841 170.517 85.2841C170.495 85.2841 170.299 85.4893 170.058 85.7713C170.014 85.7713 169.971 85.7714 169.971 85.797C169.927 85.8483 169.381 86.4637 168.878 87.1816C168.834 86.9765 168.812 86.8227 168.791 86.7457C168.791 86.7201 168.747 86.6944 168.703 86.6944C168.659 86.6944 168.616 86.7201 168.616 86.7457C168.616 86.7457 168.616 87.1047 168.572 87.6175C168.288 88.0534 168.069 88.515 167.982 88.8996C168.222 86.156 168.288 82.72 168.31 82.4892C168.31 82.4636 168.288 82.438 168.244 82.438C168.2 82.438 168.157 82.438 168.135 82.4636C167.916 82.72 162.977 89.0535 164.463 91.4638C164.725 91.8997 165.206 92.1818 165.84 92.31C166.233 92.3869 166.583 92.3356 166.911 92.1817C167.064 92.1048 167.217 92.0023 167.348 91.8741C167.282 92.0535 167.217 92.1818 167.151 92.233C166.714 92.5151 166.015 92.4894 165.534 92.3356C164.988 92.1561 164.572 91.8228 164.201 91.5407C164.179 91.5407 164.113 91.5151 164.07 91.5407C164.07 91.5407 164.026 91.592 164.07 91.6176C164.463 91.9253 164.878 92.2587 165.469 92.4382C165.993 92.6177 166.78 92.6433 167.282 92.31C167.414 92.233 167.523 91.9766 167.61 91.592C167.982 91.1048 168.244 90.4125 168.419 89.7202C168.485 89.7202 168.572 89.7458 168.659 89.7714C168.725 89.7714 168.791 89.7715 168.856 89.7202C169.097 89.5663 169.097 88.8483 169.031 88.1817C169.118 88.2586 169.228 88.2842 169.359 88.3099C169.534 88.3355 169.708 88.3099 169.84 88.233C169.84 88.233 169.84 88.233 169.861 88.233C170.102 88.0791 170.211 87.7201 170.233 87.3611C170.233 87.515 170.277 87.6432 170.32 87.7971C170.473 88.1817 170.845 88.4381 171.391 88.5919C172.266 88.8227 173.14 88.7714 173.948 88.4381C175.151 87.9509 176.156 86.8739 176.986 85.5662C177.117 85.5662 177.227 85.5662 177.358 85.515C177.445 85.4893 177.533 85.4124 177.598 85.3611C177.533 85.515 177.445 85.6688 177.38 85.797C177.27 85.9509 177.205 86.1303 177.139 86.2585C177.139 86.2842 177.139 86.3098 177.205 86.3355C177.227 86.3355 177.271 86.3355 177.292 86.3355C177.358 86.1816 177.445 86.0278 177.533 85.8739C177.773 85.4637 178.123 85.0278 178.473 84.5919C179.259 83.6175 179.981 82.6944 179.675 82.1046C179.609 82.002 179.522 81.9251 179.412 81.8482C180.767 78.8225 182.013 75.8224 182.035 75.7968C182.035 75.7711 182.035 75.7455 181.969 75.7198C181.926 75.7198 181.86 75.7199 181.86 75.7711L181.838 75.7198ZM172.287 83.6688C173.315 82.438 174.473 81.2841 175.129 80.643L172.222 84.8995L172.287 83.6431V83.6688ZM170.08 85.9252C170.189 85.797 170.299 85.6688 170.386 85.5919L170.167 86.5919C170.167 86.3098 170.102 86.079 170.08 85.9252ZM167.392 91.5664C167.217 91.7971 166.998 92.0023 166.758 92.1305C166.474 92.2843 166.168 92.31 165.84 92.233C165.25 92.1048 164.813 91.8484 164.572 91.4382C163.261 89.3099 167.195 83.8995 168.069 82.7457C168.026 85.0021 167.829 89.7458 167.392 91.5664ZM168.004 89.515C168.004 89.515 168.113 89.6432 168.179 89.6689C168.047 90.2074 167.873 90.7202 167.632 91.1561C167.741 90.6176 167.829 89.9253 167.894 89.1561C167.894 89.2843 167.938 89.3868 168.004 89.4894V89.515ZM168.157 89.4637C167.96 89.156 168.157 88.6176 168.463 88.0278C168.419 88.4894 168.332 89.0022 168.222 89.5407C168.2 89.5407 168.179 89.4894 168.157 89.4637ZM168.659 89.6689C168.659 89.6689 168.638 89.6689 168.616 89.6689C168.528 89.6689 168.441 89.6689 168.375 89.6176C168.55 88.8996 168.638 88.1817 168.681 87.6432C168.681 87.6432 168.681 87.6432 168.681 87.6175C168.812 88.515 168.856 89.4894 168.638 89.6432L168.659 89.6689ZM169.665 88.1817C169.577 88.2329 169.468 88.2586 169.359 88.233C169.206 88.2073 169.097 88.1304 169.031 88.0278C168.812 87.6176 169.424 86.7201 169.949 86.0791C170.036 86.7201 170.102 87.874 169.687 88.156L169.665 88.1817ZM177.205 85.438C177.205 85.438 177.074 85.4893 177.008 85.4637C177.249 85.079 177.467 84.6944 177.664 84.2841C178.167 83.5662 178.56 82.6687 178.866 81.8226C178.669 82.5918 178.429 83.3867 178.167 84.0277C178.079 84.2329 177.992 84.4123 177.904 84.6175C177.686 85.0021 177.445 85.3098 177.227 85.4124L177.205 85.438ZM176.527 85.2585C176.418 85.156 176.331 85.0277 176.287 84.8482C176.068 84.0277 176.724 82.6687 177.642 82.0533C177.686 82.0277 177.729 82.002 177.773 81.9764C178.035 81.8225 178.32 81.7456 178.56 81.7456C178.232 82.6174 177.861 83.5149 177.423 84.3354C177.161 84.72 176.855 85.0277 176.506 85.2585H176.527ZM179.041 81.8226C179.041 81.8226 179.128 81.8482 179.15 81.8738C179.041 82.1046 178.953 82.3354 178.844 82.5661C178.91 82.3097 178.975 82.079 179.041 81.8226ZM179.456 82.1302C179.762 82.6687 178.997 83.5918 178.276 84.5149C178.145 84.6688 178.035 84.8226 177.904 84.9765C177.992 84.8226 178.057 84.6431 178.145 84.4893C178.188 84.4123 178.21 84.3354 178.254 84.2585C178.604 83.5149 178.953 82.7457 179.303 81.9508C179.369 82.0021 179.412 82.0533 179.456 82.1302ZM178.604 81.6174C178.298 81.6174 177.97 81.6944 177.664 81.8738C177.62 81.8995 177.576 81.9251 177.511 81.9508C176.549 82.5918 175.872 84.0021 176.112 84.8482C176.156 85.0277 176.265 85.1816 176.396 85.3098C176.309 85.3611 176.2 85.4124 176.09 85.4637C175.719 85.6175 175.325 85.6432 174.932 85.515C174.364 85.3611 174.014 85.079 173.883 84.6944C173.14 82.5918 178.626 77.7712 180.046 76.566C179.828 77.643 179.347 79.5917 178.604 81.5918V81.6174Z" fill="#4D6E98"/>
<path d="M76.5383 23.1285C76.8661 23.3593 76.429 24.2054 75.2051 25.6927C77.5873 27.026 79.2921 28.0773 80.3193 28.8209C82.8764 30.6158 83.838 31.7184 83.2261 32.1287C82.8327 32.3851 82.33 32.4364 81.7399 32.2569C80.6472 31.8979 79.7292 31.5133 78.9861 31.103C78.2649 30.6928 77.6092 30.3081 77.0628 29.9748C76.4946 29.6415 75.817 29.2568 75.0084 28.7696C74.1997 28.2824 73.6534 27.9748 73.3911 27.8209C72.0142 29.3594 71.0526 30.4876 70.4843 31.18C69.9161 31.8723 69.5445 32.3082 69.3697 32.5133C70.8122 34.7441 71.7956 36.3852 72.3639 37.4108C72.9321 38.4365 73.0632 39.0519 72.7573 39.257C72.4513 39.4622 71.9268 39.5648 71.2055 39.5648C70.4625 39.5648 69.8942 39.4365 69.5008 39.1801C69.326 39.0776 68.5173 37.7186 67.0311 35.1031C66.6159 35.3852 66.1351 35.539 65.6105 35.5903C65.086 35.6416 64.627 35.539 64.2555 35.2826C63.884 35.0262 64.2774 34.1031 65.4794 32.462C65.1516 31.8723 64.7582 31.2312 64.3429 30.5645C63.9277 29.8979 63.1846 28.6414 62.1136 26.7696C61.0646 24.9234 60.3434 23.7182 59.9718 23.2054C59.6003 22.6926 59.5129 22.1028 59.6877 21.4874C59.8844 20.872 60.2559 20.3592 60.8023 20.0002C61.4361 19.5899 62.9004 19.8207 65.239 20.7438C67.5775 21.6669 70.222 22.9234 73.1725 24.5388C73.6315 24.1798 73.9593 23.9234 74.1342 23.7952C75.2707 23.0259 76.0794 22.7952 76.5602 23.1285H76.5383ZM67.6213 29.8466C68.5611 28.7953 69.6538 27.6671 70.9214 26.4619C68.3206 25.0516 65.7416 23.7695 63.1845 22.6157C64.3866 24.7952 65.8728 27.2055 67.6213 29.8466Z" fill="#538C44"/>
<path d="M93.7163 14.7949C94.4594 15.3077 92.7985 17.2565 88.7115 20.6156C89.1486 21.0515 89.848 21.7694 90.8315 22.7438C91.815 23.7438 92.4925 24.4618 92.864 24.9233C93.2574 25.3849 93.3448 25.6669 93.1263 25.7951C92.864 25.9746 92.4269 26.0259 91.8149 25.9747C91.203 25.9234 90.744 25.7695 90.3943 25.5131C90.0665 25.2567 89.7606 25.0003 89.4764 24.7182C89.1923 24.4361 88.7989 24.0515 88.2962 23.5643C87.7935 23.0771 87.3127 22.59 86.8101 22.1284C85.3676 23.2566 84.0125 24.231 82.723 25.1029C82.3078 25.3849 81.7614 25.5131 81.1057 25.5131C80.4282 25.5131 79.9255 25.3849 79.5758 25.1541C79.2261 24.9233 79.2918 24.6413 79.7726 24.3079C82.5045 22.4617 84.2748 21.2309 85.1053 20.5899C83.488 19.1796 82.0237 17.9488 80.6905 16.9232C80.1878 16.5642 80.1004 16.2565 80.4501 16.0257C80.7779 15.8206 81.4117 15.7437 82.3734 15.718C83.335 15.718 83.947 15.8206 84.2092 16.0257C84.7775 16.4616 85.761 17.436 87.1379 18.9488C89.6731 16.9232 91.1155 15.7949 91.4652 15.5385C92.6017 14.7693 93.3448 14.5128 93.7163 14.7693V14.7949Z" fill="#538C44"/>
<path d="M143.46 125.003L97.1483 93.6687C94.7879 92.0533 65.3485 112.72 65.3485 112.72C60.5621 118.464 112.622 149.773 112.622 149.773C114.982 151.388 145.821 126.644 143.46 125.028V125.003ZM112.666 147.516L66.9221 118.618L97.2794 98.0535L141.908 128.259L112.688 147.516H112.666Z" fill="#888888"/>
<path d="M65.5444 116.592L110.72 147.208L142.41 125.746L97.235 95.1304L65.5444 116.592Z" fill="#212121"/>
<path d="M97.8908 127.388L94.9622 129.362C94.4595 129.721 93.629 129.721 93.1044 129.362L90.8096 127.798C90.3069 127.439 90.3069 126.901 90.8096 126.542L93.7383 124.567C94.2409 124.208 95.0715 124.208 95.596 124.567L97.8908 126.131C98.3935 126.49 98.3935 127.029 97.8908 127.388Z" fill="#B2B9BB"/>
<path d="M104.513 122.901L101.585 124.875C101.082 125.234 100.252 125.234 99.727 124.875L97.4322 123.311C96.9295 122.952 96.9295 122.413 97.4322 122.054L100.361 120.08C100.863 119.721 101.694 119.721 102.219 120.08L104.513 121.644C105.016 122.003 105.016 122.542 104.513 122.901Z" fill="#B2B9BB"/>
<path d="M111.114 118.413L108.185 120.387C107.682 120.746 106.852 120.746 106.327 120.387L104.032 118.823C103.53 118.464 103.53 117.926 104.032 117.567L106.961 115.592C107.464 115.233 108.294 115.233 108.819 115.592L111.114 117.156C111.616 117.515 111.616 118.054 111.114 118.413Z" fill="#B2B9BB"/>
<path d="M117.736 113.951L114.807 115.926C114.304 116.285 113.474 116.285 112.949 115.926L110.654 114.362C110.152 114.003 110.152 113.464 110.654 113.105L113.583 111.131C114.086 110.772 114.916 110.772 115.441 111.131L117.736 112.695C118.238 113.054 118.238 113.592 117.736 113.951Z" fill="#F4BB3B"/>
<path d="M103.639 131.285L100.71 133.26C100.208 133.619 99.377 133.619 98.8525 133.26L96.5577 131.696C96.055 131.337 96.055 130.798 96.5577 130.439L99.4863 128.465C99.989 128.106 100.82 128.106 101.344 128.465L103.639 130.029C104.142 130.388 104.142 130.926 103.639 131.285Z" fill="#B2B9BB"/>
<path d="M110.261 126.798L107.333 128.773C106.83 129.132 106 129.132 105.475 128.773L103.18 127.208C102.678 126.849 102.678 126.311 103.18 125.952L106.109 123.978C106.612 123.619 107.442 123.619 107.967 123.978L110.261 125.542C110.764 125.901 110.764 126.439 110.261 126.798Z" fill="#B2B9BB"/>
<path d="M116.883 122.337L113.955 124.311C113.452 124.67 112.622 124.67 112.097 124.311L109.802 122.747C109.3 122.388 109.3 121.849 109.802 121.49L112.731 119.516C113.234 119.157 114.064 119.157 114.589 119.516L116.883 121.08C117.386 121.439 117.386 121.978 116.883 122.337Z" fill="#B2B9BB"/>
<path d="M123.484 117.849L120.555 119.824C120.052 120.183 119.222 120.183 118.697 119.824L116.402 118.259C115.9 117.9 115.9 117.362 116.402 117.003L119.331 115.029C119.834 114.67 120.664 114.67 121.189 115.029L123.484 116.593C123.986 116.952 123.986 117.49 123.484 117.849Z" fill="#F4BB3B"/>
<path d="M109.409 135.183L106.48 137.157C105.978 137.516 105.147 137.516 104.623 137.157L102.328 135.593C101.825 135.234 101.825 134.696 102.328 134.337L105.256 132.362C105.759 132.003 106.59 132.003 107.114 132.362L109.409 133.926C109.912 134.285 109.912 134.824 109.409 135.183Z" fill="#B2B9BB"/>
<path d="M116.009 130.696L113.081 132.67C112.578 133.029 111.748 133.029 111.223 132.67L108.928 131.106C108.426 130.747 108.426 130.209 108.928 129.85L111.857 127.875C112.36 127.516 113.19 127.516 113.715 127.875L116.009 129.439C116.512 129.798 116.512 130.337 116.009 130.696Z" fill="#B2B9BB"/>
<path d="M122.632 126.234L119.703 128.209C119.2 128.568 118.37 128.568 117.845 128.209L115.55 126.645C115.048 126.286 115.048 125.747 115.55 125.388L118.479 123.414C118.982 123.055 119.812 123.055 120.337 123.414L122.632 124.978C123.134 125.337 123.134 125.875 122.632 126.234Z" fill="#B2B9BB"/>
<path d="M115.157 139.08L112.228 141.055C111.726 141.414 110.895 141.414 110.371 141.055L108.076 139.491C107.573 139.132 107.573 138.593 108.076 138.234L111.004 136.26C111.507 135.901 112.338 135.901 112.862 136.26L115.157 137.824C115.66 138.183 115.66 138.721 115.157 139.08Z" fill="#F4BB3B"/>
<path d="M121.779 134.593L118.85 136.567C118.348 136.926 117.517 136.926 116.993 136.567L114.698 135.003C114.195 134.644 114.195 134.106 114.698 133.747L117.626 131.772C118.129 131.413 118.96 131.413 119.484 131.772L121.779 133.337C122.282 133.696 122.282 134.234 121.779 134.593Z" fill="#B2B9BB"/>
<path d="M128.379 130.131L125.45 132.106C124.948 132.465 124.117 132.465 123.593 132.106L121.298 130.542C120.795 130.183 120.795 129.644 121.298 129.285L124.227 127.311C124.729 126.952 125.56 126.952 126.084 127.311L128.379 128.875C128.882 129.234 128.882 129.772 128.379 130.131Z" fill="#F4BB3B"/>
<path d="M125.079 118.926L122.15 120.901C121.648 121.26 121.648 121.798 122.15 122.157L130.215 127.619C130.718 127.978 131.548 127.978 132.073 127.619L135.002 125.644C135.504 125.285 135.504 124.747 135.002 124.388L126.937 118.926C126.434 118.567 125.604 118.567 125.079 118.926Z" fill="#F4BB3B"/>
<path d="M86.8758 125.08L74.5273 116.721L99.0056 100.157L111.332 108.49L86.8758 125.08Z" fill="#F4BB3B"/>
<path d="M111.004 108.49L86.8757 124.849L74.877 116.721L99.0055 100.387L111.004 108.49Z" fill="white"/>
<path d="M109.081 108.643L108.885 108.771L103.749 105.284L103.923 105.156L109.081 108.643Z" fill="#212121"/>
<path style="mix-blend-mode:screen" opacity="0.9" d="M90.8096 99.4894L123.877 138.285L141.799 126.157L141.602 125.182L97.2351 95.1304L90.8096 99.4894Z" fill="url(#paint1_linear_388_2276)"/>
<path d="M147.656 128.849C147.656 129.901 147.066 130.978 145.864 131.798L122.107 147.901C119.725 149.517 115.878 149.517 113.518 147.901L66.2879 115.952C65.1077 115.157 64.5176 114.106 64.5176 113.054V116.798C64.5176 117.849 65.1077 118.901 66.2879 119.695L113.518 151.645C115.878 153.26 119.725 153.26 122.107 151.645L145.864 135.542C147.066 134.721 147.656 133.67 147.656 132.593V128.849Z" fill="url(#paint2_linear_388_2276)"/>
<path d="M145.885 125.951L98.6556 94.0018C96.2952 92.3864 92.4487 92.3864 90.0664 94.0018L66.3095 110.105C63.9272 111.72 63.9272 114.336 66.2876 115.951L113.517 147.901C115.878 149.516 119.724 149.516 122.107 147.901L145.864 131.798C148.246 130.182 148.268 127.567 145.885 125.951ZM111.485 145.259L66.8559 115.054L97.2132 94.489L141.842 124.695L111.485 145.259Z" fill="#E9ECED"/>
<path d="M134.411 135.157L133.144 134.311C132.51 133.875 131.461 133.926 130.74 134.414L126.216 137.465C125.975 137.619 125.8 137.824 125.691 138.055C125.451 138.542 125.604 139.106 126.063 139.414L127.33 140.26C127.964 140.696 129.013 140.645 129.734 140.157L134.258 137.106C134.499 136.952 134.674 136.747 134.783 136.516C135.023 136.029 134.87 135.465 134.411 135.157Z" fill="#B2B9BB"/>
<path d="M134.411 135.721L133.144 134.875C132.51 134.439 131.461 134.491 130.74 134.978L126.216 138.029C125.975 138.183 125.8 138.388 125.691 138.619C125.647 138.696 125.647 138.773 125.625 138.85C125.691 139.08 125.844 139.286 126.063 139.439L127.33 140.286C127.964 140.721 129.013 140.67 129.734 140.183L134.258 137.132C134.499 136.978 134.674 136.773 134.783 136.542C134.827 136.465 134.827 136.388 134.849 136.311C134.783 136.08 134.63 135.875 134.411 135.721Z" fill="#E9ECED"/>
<path d="M82.308 100.848L76.3851 104.874C75.9262 105.182 75.8825 105.669 76.2759 105.925C76.6693 106.207 77.3686 106.156 77.8276 105.848L83.7504 101.823C84.2094 101.515 84.2532 101.028 83.8598 100.771C83.4664 100.489 82.7669 100.54 82.308 100.848Z" fill="#424144"/>
<path d="M79.1828 126.644C79.1391 126.464 79.0517 126.285 78.9424 126.131C78.8332 125.951 78.7021 125.798 78.5491 125.695L74.7462 123.105C74.5495 122.977 74.3746 122.977 74.2653 123.054L73.7627 123.387C73.8938 123.31 74.0468 123.31 74.2435 123.438L78.0464 126.028C78.1994 126.131 78.3305 126.285 78.4397 126.464C78.5272 126.618 78.6146 126.798 78.6802 126.977C78.7239 127.131 78.7458 127.285 78.7458 127.439V127.695C78.7458 127.951 78.6583 128.131 78.5491 128.208L79.0517 127.874C79.1828 127.798 79.2484 127.618 79.2484 127.362V127.105C79.2484 126.951 79.2265 126.798 79.1828 126.644Z" fill="#E9ECED"/>
<path d="M78.0678 126.028L74.2649 123.438C73.8934 123.182 73.5874 123.387 73.5874 123.9V124.156C73.5874 124.669 73.8934 125.284 74.2649 125.566L78.0678 128.156C78.4394 128.413 78.7453 128.207 78.7453 127.695V127.438C78.7453 126.925 78.4394 126.284 78.0678 126.028Z" fill="#B2B9BB"/>
<path d="M71.555 121.464C71.5113 121.285 71.4238 121.105 71.3145 120.951C71.2052 120.772 71.0741 120.618 70.9211 120.516L67.1183 117.926C66.9216 117.798 66.7686 117.798 66.6375 117.875L66.1348 118.208C66.2659 118.131 66.4189 118.131 66.6156 118.259L70.4185 120.849C70.5715 120.952 70.7026 121.105 70.8119 121.285C70.8993 121.439 70.9867 121.618 71.0523 121.798C71.096 121.952 71.1178 122.105 71.1178 122.259V122.516C71.1178 122.772 71.0304 122.952 70.9211 123.028L71.4238 122.695C71.555 122.618 71.6205 122.439 71.6205 122.182V121.926C71.6205 121.772 71.5987 121.618 71.555 121.464Z" fill="#E9ECED"/>
<path d="M70.4408 120.874L66.638 118.285C66.2664 118.028 65.9604 118.233 65.9604 118.746V119.003C65.9604 119.516 66.2664 120.157 66.638 120.413L70.4408 123.003C70.8124 123.259 71.1183 123.054 71.1183 122.541V122.285C71.1183 121.772 70.8124 121.131 70.4408 120.874Z" fill="#B2B9BB"/>
<path d="M72.1448 110.182C71.5985 110.541 70.7242 110.541 70.1779 110.182C69.6315 109.823 69.6315 109.208 70.1779 108.849C70.7242 108.49 71.5985 108.49 72.1448 108.849C72.6912 109.208 72.6912 109.823 72.1448 110.182Z" fill="#212121"/>
<path opacity="0.1" d="M70.5053 109.977C70.855 110.207 71.4013 110.182 71.7292 109.951C72.057 109.72 72.0571 109.336 71.7074 109.105C71.3577 108.874 70.8113 108.9 70.4835 109.131C70.1556 109.361 70.1556 109.746 70.5053 109.977Z" fill="#D0D6D6"/>
<path opacity="0.1" d="M70.7679 109.746C70.9646 109.874 71.2487 109.848 71.4454 109.746C71.6203 109.618 71.6203 109.413 71.4454 109.284C71.2487 109.156 70.9646 109.182 70.7679 109.284C70.593 109.413 70.593 109.618 70.7679 109.746Z" fill="#D0D6D6"/>
<g style="mix-blend-mode:screen" opacity="0.2">
<path d="M70.9867 109.541C70.9867 109.541 71.1616 109.592 71.2271 109.541C71.2927 109.49 71.2927 109.413 71.2271 109.361C71.1616 109.31 71.0522 109.31 70.9867 109.361C70.9211 109.413 70.9211 109.49 70.9867 109.541Z" fill="#D0D6D6"/>
</g>
<defs>
<linearGradient id="paint0_linear_388_2276" x1="55.0277" y1="120.118" x2="158.754" y2="31.7072" gradientUnits="userSpaceOnUse">
<stop stop-color="#EEEEEE"/>
<stop offset="1" stop-color="#F2F1F1"/>
</linearGradient>
<linearGradient id="paint1_linear_388_2276" x1="122.937" y1="107.156" x2="99.0599" y2="121.973" gradientUnits="userSpaceOnUse">
<stop/>
<stop offset="0.23" stop-color="#050505"/>
<stop offset="0.54" stop-color="#161616"/>
<stop offset="0.88" stop-color="#323232"/>
<stop offset="1" stop-color="#3D3D3D"/>
</linearGradient>
<linearGradient id="paint2_linear_388_2276" x1="64.4957" y1="132.952" x2="147.656" y2="132.952" gradientUnits="userSpaceOnUse">
<stop offset="0.45" stop-color="#B2B9BB"/>
<stop offset="0.57" stop-color="#D6DCDD"/>
</linearGradient>
</defs>
</svg>
