<svg width="200" height="154" viewBox="0 0 200 154" fill="none" xmlns="http://www.w3.org/2000/svg">
<path d="M199.998 74.8687V79.0087C199.998 80.0726 199.315 81.1597 197.972 81.9692V77.8291C199.315 77.0196 199.998 75.9326 199.998 74.8687Z" fill="#E4E7E8"/>
<path d="M197.994 77.8284L197.972 81.9684L82.7817 152.28L82.8038 148.163L197.994 77.8284Z" fill="#D6DCDD"/>
<path d="M2.04753 105.12C0.682509 104.288 0 103.201 0 102.114V106.254C0 107.341 0.682509 108.428 2.02551 109.261L72.9624 152.28V148.14L2.04753 105.12Z" fill="#B2B9BB"/>
<path d="M82.8042 148.164V152.304C80.0962 153.946 75.7149 153.946 72.9849 152.304V148.164C75.7149 149.806 80.0962 149.806 82.8042 148.164Z" fill="#E4E7E8"/>
<path d="M197.95 71.8609C200.68 73.503 200.68 76.186 197.972 77.8282L82.7818 148.163C80.0738 149.805 75.6925 149.805 72.9625 148.163L2.04758 105.12C-0.66044 103.478 -0.682456 100.795 2.04758 99.153L117.238 28.818C119.946 27.1759 124.327 27.1759 127.035 28.818L197.972 71.8377L197.95 71.8609Z" fill="#E9ECED"/>
<path d="M199.998 73.967V75.3085C199.998 76.3724 199.315 77.4595 197.972 78.269V76.9275C199.315 76.118 199.998 75.031 199.998 73.967Z" fill="#77777C"/>
<path d="M197.994 76.9271L197.972 78.2917L82.7817 148.604L82.8038 147.262L197.994 76.9271Z" fill="#68686E"/>
<path d="M2.04753 104.242C0.682509 103.41 0 102.323 0 101.235V102.577C0 103.664 0.682509 104.751 2.02551 105.584L72.9624 148.603V147.262L2.04753 104.242Z" fill="#58585D"/>
<path d="M82.8042 147.262V148.604C80.0962 150.246 75.7149 150.246 72.9849 148.604V147.262C75.7149 148.905 80.0962 148.905 82.8042 147.262Z" fill="#77777C"/>
<path d="M197.95 70.9595C200.68 72.6016 200.68 75.2846 197.972 76.9267L82.7818 147.262C80.0738 148.904 75.6925 148.904 72.9625 147.262L2.04758 104.242C-0.66044 102.6 -0.682456 99.9168 2.04758 98.2747L117.238 27.9397C119.946 26.2976 124.327 26.2976 127.035 27.9397L197.972 70.9595H197.95Z" fill="#E9ECED"/>
<path d="M40.9063 131.882L36.7012 129.338C36.415 129.176 36.1948 128.806 36.1948 128.505V127.533C36.1948 127.233 36.415 127.14 36.7012 127.302L40.9063 129.846C41.1926 130.008 41.4127 130.378 41.4127 130.679V131.65C41.4127 131.951 41.1926 132.044 40.9063 131.882Z" fill="#353538"/>
<path d="M49.0743 136.831L44.8692 134.287C44.583 134.125 44.3628 133.755 44.3628 133.454V132.483C44.3628 132.182 44.583 132.09 44.8692 132.251L49.0743 134.796C49.3605 134.958 49.5807 135.328 49.5807 135.628V136.6C49.5807 136.9 49.3605 136.993 49.0743 136.831Z" fill="#353538"/>
<path d="M113.406 82.2935C112.834 81.0214 111.755 79.9344 110.324 79.0555C107.418 77.2977 103.081 76.4882 98.8316 77.1821C92.5129 78.2229 88.7701 82.1779 90.4874 86.0173C91.0598 87.2894 92.1386 88.3995 93.5697 89.2553C96.4758 91.0131 100.813 91.8226 105.04 91.1288C111.381 90.088 115.102 86.1329 113.384 82.2704L113.406 82.2935ZM104.754 90.458C100.923 91.0825 97.0263 90.3655 94.4063 88.7696C93.1294 87.9832 92.1386 87.0118 91.6322 85.8554C90.0911 82.3861 93.4596 78.8242 99.1398 77.899C102.971 77.2746 106.868 77.9916 109.488 79.5874C110.765 80.3738 111.755 81.3452 112.262 82.5017C113.803 85.971 110.434 89.5329 104.754 90.458Z" fill="#2B93BC"/>
<path d="M131.592 54.2598C114.398 64.6909 86.5027 64.6909 69.3079 54.2598C60.8095 49.1021 56.5163 42.3716 56.4062 35.6179V80.6267C56.5163 87.3804 60.8095 94.1109 69.3079 99.2686C86.5027 109.7 114.398 109.7 131.592 99.2686C140.289 93.9952 144.582 87.0566 144.494 80.141V35.1322C144.604 42.0477 140.289 48.9864 131.592 54.2598Z" fill="url(#paint0_linear_388_393)"/>
<path d="M170.363 41.632V45.1707L102.156 86.8027L102.178 83.264L170.363 41.632Z" fill="#28282A"/>
<path d="M102.178 83.264L102.156 86.8027L33.5312 45.1707V41.632L102.178 83.264Z" fill="#202023"/>
<path d="M170.363 41.632L102.178 83.264L33.5312 41.632L101.716 0L170.363 41.632Z" fill="url(#paint1_linear_388_393)"/>
<path d="M67.2599 112.337C66.8195 112.337 66.4673 111.967 66.4673 111.504V63.3964C66.4673 62.4018 66.9737 61.4536 67.8103 60.9447L101.209 40.707C101.583 40.4757 102.068 40.6145 102.288 41.0076C102.508 41.4008 102.376 41.9096 102.002 42.1409L68.6249 62.3787C68.2946 62.5869 68.0745 62.9801 68.0745 63.3964V111.504C68.0745 111.967 67.7222 112.337 67.2819 112.337H67.2599Z" fill="#F4B638"/>
<path d="M67.282 104.219C66.2032 103.872 63.6934 109.076 63.6934 114.118C63.6934 114.488 64.0236 114.812 64.4199 114.673C64.4419 115.136 64.4419 115.575 64.9923 115.575C65.0584 115.575 65.0804 115.575 65.1905 115.529C65.1905 116.199 65.895 116.338 66.1812 115.945C66.1812 116.708 67.172 116.778 67.282 116.084C67.4141 116.801 68.4049 116.708 68.3829 115.968C68.537 116.014 68.6911 116.014 68.8892 115.829C69.2415 116.199 69.8139 115.922 69.8359 115.436C69.8359 115.251 69.8359 115.066 69.858 114.858C72.0376 115.644 69.0654 103.71 67.26 104.219H67.282Z" fill="url(#paint2_linear_388_393)"/>
<path d="M66.6875 62.3553C66.5554 62.6792 66.4673 63.0261 66.4673 63.3961V104.866C66.4673 105.56 68.0525 105.514 68.0525 104.866V63.3961C68.0525 63.3961 68.0525 63.2574 68.0745 63.188C67.5681 63.003 67.0837 62.7485 66.6875 62.3553Z" fill="#BF8319"/>
<path d="M101.407 43.0658C103.345 43.3896 105.326 42.6726 105.855 41.5161C106.383 40.3366 105.216 39.1339 103.301 38.8332C101.363 38.5094 99.3818 39.2033 98.8534 40.3829C98.325 41.5624 99.4919 42.7651 101.407 43.0658Z" fill="#F4B638"/>
<defs>
<linearGradient id="paint0_linear_388_393" x1="58.2336" y1="71.0976" x2="145.221" y2="71.0976" gradientUnits="userSpaceOnUse">
<stop stop-color="#151517"/>
<stop offset="1" stop-color="#28282A"/>
</linearGradient>
<linearGradient id="paint1_linear_388_393" x1="33.5312" y1="41.632" x2="170.363" y2="41.632" gradientUnits="userSpaceOnUse">
<stop stop-color="#363638"/>
<stop offset="1" stop-color="#424245"/>
</linearGradient>
<linearGradient id="paint2_linear_388_393" x1="63.9576" y1="110.394" x2="71.9936" y2="110.394" gradientUnits="userSpaceOnUse">
<stop stop-color="#BF8319"/>
<stop offset="1" stop-color="#E2A52E"/>
</linearGradient>
</defs>
</svg>
